<svg xmlns="http://www.w3.org/2000/svg" xmlns:xlink="http://www.w3.org/1999/xlink" width="308" zoomAndPan="magnify" viewBox="0 0 230.87999 231" height="308" preserveAspectRatio="xMidYMid meet" version="1.0"><defs><clipPath id="b932ead8df"><path d="M 0 0.0585938 L 204 0.0585938 L 204 143.984375 L 0 143.984375 Z M 0 0.0585938 " clip-rule="nonzero"/></clipPath><clipPath id="e90ba09154"><path d="M 101.945312 0.0585938 C 45.644531 0.0585938 0 32.277344 0 72.023438 C 0 111.765625 45.644531 143.984375 101.945312 143.984375 C 158.25 143.984375 203.894531 111.765625 203.894531 72.023438 C 203.894531 32.277344 158.25 0.0585938 101.945312 0.0585938 Z M 101.945312 0.0585938 " clip-rule="nonzero"/></clipPath><clipPath id="ce9b28d2ba"><path d="M 11.992188 86.414062 L 204 86.414062 L 204 230.339844 L 11.992188 230.339844 Z M 11.992188 86.414062 " clip-rule="nonzero"/></clipPath><clipPath id="71b1d8e079"><path d="M 107.945312 86.414062 C 54.953125 86.414062 11.992188 118.632812 11.992188 158.378906 C 11.992188 198.121094 54.953125 230.339844 107.945312 230.339844 C 160.9375 230.339844 203.894531 198.121094 203.894531 158.378906 C 203.894531 118.632812 160.9375 86.414062 107.945312 86.414062 Z M 107.945312 86.414062 " clip-rule="nonzero"/></clipPath><clipPath id="6d4e1d1f59"><path d="M 59.96875 48.035156 L 230 48.035156 L 230 179.964844 L 59.96875 179.964844 Z M 59.96875 48.035156 " clip-rule="nonzero"/></clipPath><clipPath id="ae709a8e99"><path d="M 144.925781 48.035156 C 98.003906 48.035156 59.96875 77.570312 59.96875 114 C 59.96875 150.433594 98.003906 179.964844 144.925781 179.964844 C 191.84375 179.964844 229.878906 150.433594 229.878906 114 C 229.878906 77.570312 191.84375 48.035156 144.925781 48.035156 Z M 144.925781 48.035156 " clip-rule="nonzero"/></clipPath><clipPath id="5cf6542c89"><path d="M 122.335938 17.023438 L 203.894531 17.023438 L 203.894531 98.578125 L 122.335938 98.578125 Z M 122.335938 17.023438 " clip-rule="nonzero"/></clipPath><clipPath id="ce28517931"><path d="M 163.113281 17.023438 C 140.59375 17.023438 122.335938 35.277344 122.335938 57.800781 C 122.335938 80.320312 140.59375 98.578125 163.113281 98.578125 C 185.636719 98.578125 203.894531 80.320312 203.894531 57.800781 C 203.894531 35.277344 185.636719 17.023438 163.113281 17.023438 Z M 163.113281 17.023438 " clip-rule="nonzero"/></clipPath><clipPath id="b6e56c6c04"><path d="M 11.992188 131.992188 L 93.550781 131.992188 L 93.550781 213.550781 L 11.992188 213.550781 Z M 11.992188 131.992188 " clip-rule="nonzero"/></clipPath><clipPath id="1d2fc0bc32"><path d="M 52.773438 131.992188 C 30.25 131.992188 11.992188 150.25 11.992188 172.769531 C 11.992188 195.292969 30.25 213.550781 52.773438 213.550781 C 75.292969 213.550781 93.550781 195.292969 93.550781 172.769531 C 93.550781 150.25 75.292969 131.992188 52.773438 131.992188 Z M 52.773438 131.992188 " clip-rule="nonzero"/></clipPath><clipPath id="aca1d28c3a"><path d="M 131.929688 131.992188 L 213.488281 131.992188 L 213.488281 213.550781 L 131.929688 213.550781 Z M 131.929688 131.992188 " clip-rule="nonzero"/></clipPath><clipPath id="6b10edda83"><path d="M 172.710938 131.992188 C 150.1875 131.992188 131.929688 150.25 131.929688 172.769531 C 131.929688 195.292969 150.1875 213.550781 172.710938 213.550781 C 195.230469 213.550781 213.488281 195.292969 213.488281 172.769531 C 213.488281 150.25 195.230469 131.992188 172.710938 131.992188 Z M 172.710938 131.992188 " clip-rule="nonzero"/></clipPath><clipPath id="d0ab9509a5"><path d="M 0 17.023438 L 81.558594 17.023438 L 81.558594 98.578125 L 0 98.578125 Z M 0 17.023438 " clip-rule="nonzero"/></clipPath><clipPath id="b49d96934d"><path d="M 40.777344 17.023438 C 18.257812 17.023438 0 35.277344 0 57.800781 C 0 80.320312 18.257812 98.578125 40.777344 98.578125 C 63.300781 98.578125 81.558594 80.320312 81.558594 57.800781 C 81.558594 35.277344 63.300781 17.023438 40.777344 17.023438 Z M 40.777344 17.023438 " clip-rule="nonzero"/></clipPath><clipPath id="a3844b4aae"><path d="M 0 0.0585938 L 230.128906 0.0585938 L 230.128906 230.191406 L 0 230.191406 Z M 0 0.0585938 " clip-rule="nonzero"/></clipPath></defs><g clip-path="url(#b932ead8df)"><g clip-path="url(#e90ba09154)"><path fill="#153243" d="M 0 0.0585938 L 204.082031 0.0585938 L 204.082031 143.984375 L 0 143.984375 Z M 0 0.0585938 " fill-opacity="1" fill-rule="nonzero"/></g></g><g clip-path="url(#ce9b28d2ba)"><g clip-path="url(#71b1d8e079)"><path fill="#153243" d="M 11.992188 86.414062 L 203.707031 86.414062 L 203.707031 230.339844 L 11.992188 230.339844 Z M 11.992188 86.414062 " fill-opacity="1" fill-rule="nonzero"/></g></g><g clip-path="url(#6d4e1d1f59)"><g clip-path="url(#ae709a8e99)"><path fill="#153243" d="M 59.96875 48.035156 L 230.035156 48.035156 L 230.035156 179.964844 L 59.96875 179.964844 Z M 59.96875 48.035156 " fill-opacity="1" fill-rule="nonzero"/></g></g><g clip-path="url(#5cf6542c89)"><g clip-path="url(#ce28517931)"><path fill="#153243" d="M 122.335938 17.023438 L 203.894531 17.023438 L 203.894531 98.578125 L 122.335938 98.578125 Z M 122.335938 17.023438 " fill-opacity="1" fill-rule="nonzero"/></g></g><g clip-path="url(#b6e56c6c04)"><g clip-path="url(#1d2fc0bc32)"><path fill="#153243" d="M 11.992188 131.992188 L 93.550781 131.992188 L 93.550781 213.550781 L 11.992188 213.550781 Z M 11.992188 131.992188 " fill-opacity="1" fill-rule="nonzero"/></g></g><g clip-path="url(#aca1d28c3a)"><g clip-path="url(#6b10edda83)"><path fill="#153243" d="M 131.929688 131.992188 L 213.488281 131.992188 L 213.488281 213.550781 L 131.929688 213.550781 Z M 131.929688 131.992188 " fill-opacity="1" fill-rule="nonzero"/></g></g><g clip-path="url(#d0ab9509a5)"><g clip-path="url(#b49d96934d)"><path fill="#153243" d="M 0 17.023438 L 81.558594 17.023438 L 81.558594 98.578125 L 0 98.578125 Z M 0 17.023438 " fill-opacity="1" fill-rule="nonzero"/></g></g><g clip-path="url(#a3844b4aae)"><path fill="#f4f9e9" d="M 101.8125 0.0585938 Z M 87.542969 69.390625 C 88.429688 69.746094 89.390625 70.027344 90.425781 70.222656 L 89.167969 73.355469 C 88.492188 75.035156 89.3125 76.949219 90.992188 77.621094 C 92.671875 78.292969 94.582031 77.476562 95.257812 75.796875 L 97.144531 71.097656 L 97.808594 71.183594 C 101.492188 71.652344 105.292969 70.933594 108.429688 69.398438 C 111.734375 67.792969 114.410156 65.238281 115.660156 62.140625 C 115.992188 61.3125 116.210938 60.453125 116.320312 59.601562 L 116.320312 59.589844 C 116.621094 57.21875 116.027344 54.960938 114.710938 53.046875 C 113.484375 51.265625 111.636719 49.804688 109.308594 48.871094 C 108.136719 48.398438 106.824219 48.058594 105.394531 47.875 L 99.046875 47.074219 C 98.210938 46.972656 97.4375 46.769531 96.75 46.492188 C 95.648438 46.050781 94.808594 45.417969 94.308594 44.6875 C 93.898438 44.085938 93.707031 43.390625 93.800781 42.675781 L 93.8125 42.664062 C 93.847656 42.367188 93.925781 42.0625 94.046875 41.757812 C 94.660156 40.238281 96.15625 38.894531 98.066406 37.960938 C 100.144531 36.957031 102.613281 36.476562 104.984375 36.769531 L 107.980469 37.152344 C 108.101562 37.175781 108.214844 37.183594 108.335938 37.195312 L 111.335938 37.578125 C 112.171875 37.679688 112.941406 37.882812 113.632812 38.160156 C 114.734375 38.601562 115.566406 39.234375 116.074219 39.964844 C 116.484375 40.558594 116.671875 41.253906 116.582031 41.976562 C 116.546875 42.257812 116.460938 42.566406 116.328125 42.894531 C 115.652344 44.578125 116.472656 46.488281 118.152344 47.160156 C 119.832031 47.835938 121.746094 47.019531 122.417969 45.335938 C 122.75 44.503906 122.96875 43.648438 123.078125 42.796875 L 123.078125 42.785156 C 123.378906 40.414062 122.785156 38.160156 121.46875 36.246094 C 120.242188 34.46875 118.394531 33.007812 116.066406 32.074219 C 115.179688 31.714844 114.21875 31.433594 113.183594 31.238281 L 114.445312 28.101562 C 115.117188 26.421875 114.300781 24.507812 112.621094 23.835938 C 110.9375 23.160156 109.027344 23.980469 108.355469 25.660156 L 106.460938 30.359375 L 105.78125 30.273438 C 102.101562 29.8125 98.3125 30.523438 95.171875 32.054688 C 91.867188 33.667969 89.191406 36.21875 87.941406 39.316406 C 87.59375 40.171875 87.371094 41.03125 87.277344 41.871094 C 86.980469 44.25 87.578125 46.5 88.890625 48.417969 C 90.117188 50.195312 91.96875 51.65625 94.289062 52.589844 C 95.464844 53.0625 96.777344 53.402344 98.203125 53.582031 L 104.554688 54.382812 C 105.390625 54.484375 106.160156 54.6875 106.851562 54.960938 C 107.949219 55.40625 108.785156 56.039062 109.292969 56.769531 C 109.699219 57.363281 109.890625 58.058594 109.800781 58.777344 C 109.765625 59.0625 109.679688 59.371094 109.546875 59.699219 C 108.933594 61.21875 107.4375 62.5625 105.527344 63.492188 C 103.449219 64.507812 100.972656 64.984375 98.609375 64.6875 L 95.621094 64.3125 C 95.492188 64.289062 95.371094 64.269531 95.246094 64.265625 L 92.257812 63.886719 C 91.421875 63.78125 90.652344 63.582031 89.960938 63.304688 C 88.863281 62.859375 88.027344 62.226562 87.519531 61.496094 C 87.113281 60.902344 86.921875 60.207031 87.011719 59.488281 C 87.046875 59.207031 87.132812 58.894531 87.265625 58.566406 C 87.941406 56.886719 87.121094 54.972656 85.441406 54.300781 C 83.761719 53.625 81.851562 54.445312 81.175781 56.125 C 80.84375 56.960938 80.625 57.8125 80.515625 58.664062 L 80.515625 58.675781 C 80.214844 61.046875 80.808594 63.304688 82.125 65.214844 C 83.371094 66.992188 85.222656 68.457031 87.542969 69.390625 Z M 101.8125 13.261719 Z M 15.554688 50.726562 C 15.554688 39.828125 25.625 30.226562 41.898438 23.523438 C 57.296875 17.179688 78.488281 13.253906 101.8125 13.253906 C 125.140625 13.253906 146.332031 17.179688 161.730469 23.523438 C 178.003906 30.226562 188.074219 39.828125 188.074219 50.726562 C 188.074219 61.621094 178.003906 71.226562 161.730469 77.925781 C 146.332031 84.269531 125.140625 88.195312 101.8125 88.195312 C 78.488281 88.195312 57.296875 84.269531 41.898438 77.925781 C 25.625 71.226562 15.554688 61.621094 15.554688 50.726562 Z M 22.128906 50.726562 C 22.128906 58.703125 30.636719 66.199219 44.390625 71.863281 C 59.019531 77.890625 79.316406 81.617188 101.8125 81.617188 C 124.3125 81.617188 144.609375 77.886719 159.238281 71.863281 C 172.992188 66.199219 181.5 58.703125 181.5 50.726562 C 181.5 42.746094 172.992188 35.25 159.238281 29.585938 C 144.609375 23.558594 124.3125 19.835938 101.8125 19.835938 C 79.316406 19.835938 59.019531 23.566406 44.390625 29.585938 C 30.636719 35.25 22.128906 42.746094 22.128906 50.726562 Z M 230.269531 97.402344 L 230.269531 132.984375 C 230.269531 141.261719 226.40625 149.027344 219.539062 155.867188 C 219.390625 156.050781 219.21875 156.222656 219.027344 156.375 C 217.625 157.730469 216.101562 159.050781 214.460938 160.335938 L 214.46875 179.664062 C 214.46875 194.113281 202.726562 206.992188 183.738281 216.117188 C 165.484375 224.902344 140.34375 230.332031 112.660156 230.332031 C 84.976562 230.332031 59.835938 224.898438 41.582031 216.117188 C 22.59375 206.988281 10.851562 194.113281 10.851562 179.664062 L 10.851562 144.089844 C 10.851562 144.089844 10.851562 144.089844 10.851562 144.082031 C 10.851562 138.863281 12.398438 133.824219 15.277344 129.082031 C 17.421875 125.558594 20.296875 122.214844 23.820312 119.085938 C 18.957031 116.21875 14.726562 113.070312 11.238281 109.691406 C 11.054688 109.542969 10.886719 109.382812 10.738281 109.195312 C 3.863281 102.359375 0 94.59375 0 86.3125 L 0 50.726562 C 0 36.277344 11.75 23.402344 30.730469 14.269531 C 48.988281 5.496094 74.128906 0.0585938 101.8125 0.0585938 C 129.5 0.0585938 154.636719 5.496094 172.894531 14.273438 C 191.878906 23.402344 203.621094 36.28125 203.621094 50.730469 L 203.621094 63.039062 C 211.613281 67.351562 218.089844 72.375 222.644531 77.914062 C 227.566406 83.894531 230.269531 90.46875 230.269531 97.402344 Z M 203.621094 70.5625 L 203.621094 78.679688 C 206.886719 81.183594 209.507812 83.894531 211.367188 86.769531 C 213.554688 90.128906 214.714844 93.699219 214.714844 97.40625 C 214.714844 108.097656 205.039062 117.53125 189.328125 124.210938 C 174.5 130.507812 154.035156 134.527344 131.351562 134.835938 C 131.207031 134.859375 131.058594 134.878906 130.910156 134.902344 C 130.632812 134.941406 130.355469 134.980469 130.078125 135.023438 C 128.929688 135.183594 127.765625 135.339844 126.597656 135.480469 C 126.511719 135.492188 126.425781 135.503906 126.339844 135.515625 C 126.332031 135.515625 126.328125 135.515625 126.320312 135.515625 C 126.304688 135.515625 126.285156 135.523438 126.261719 135.523438 C 126.113281 135.539062 125.957031 135.558594 125.808594 135.574219 C 124.773438 135.695312 123.734375 135.808594 122.6875 135.917969 C 122.515625 135.9375 122.34375 135.953125 122.171875 135.972656 C 120.980469 136.09375 119.78125 136.195312 118.578125 136.292969 C 118.460938 136.304688 118.347656 136.316406 118.234375 136.324219 C 118.054688 136.335938 117.871094 136.351562 117.691406 136.363281 C 117.292969 136.390625 116.902344 136.421875 116.503906 136.449219 C 116.320312 136.460938 116.136719 136.472656 115.953125 136.484375 C 111.332031 136.800781 106.609375 136.96875 101.8125 136.96875 C 97.054688 136.96875 92.367188 136.800781 87.777344 136.488281 C 87.542969 136.472656 87.300781 136.460938 87.070312 136.445312 C 86.707031 136.421875 86.347656 136.390625 85.984375 136.363281 C 85.789062 136.347656 85.585938 136.335938 85.390625 136.316406 L 84.503906 136.242188 C 84.285156 136.226562 84.058594 136.207031 83.839844 136.183594 L 83.410156 136.148438 C 83.519531 136.179688 83.621094 136.207031 83.730469 136.230469 C 84.714844 136.476562 85.707031 136.71875 86.714844 136.949219 C 86.714844 136.949219 86.71875 136.949219 86.71875 136.949219 C 87.40625 137.105469 88.101562 137.261719 88.792969 137.410156 C 88.882812 137.429688 88.972656 137.445312 89.058594 137.46875 C 94.03125 138.535156 99.234375 139.402344 104.617188 140.058594 C 104.652344 140.066406 104.679688 140.066406 104.714844 140.070312 C 112.308594 140.984375 120.257812 141.480469 128.460938 141.480469 C 136.632812 141.480469 144.558594 140.996094 152.128906 140.082031 C 152.203125 140.070312 152.273438 140.066406 152.347656 140.058594 C 155.53125 139.671875 158.65625 139.210938 161.703125 138.675781 C 163.78125 138.316406 165.824219 137.910156 167.828125 137.484375 C 167.953125 137.449219 168.082031 137.421875 168.214844 137.40625 C 168.21875 137.40625 168.230469 137.398438 168.234375 137.398438 C 170.371094 136.9375 172.46875 136.4375 174.515625 135.902344 C 177.613281 135.097656 180.601562 134.210938 183.480469 133.25 C 183.648438 133.175781 183.824219 133.117188 184.007812 133.070312 C 188.550781 131.53125 192.800781 129.816406 196.707031 127.941406 C 197.539062 127.542969 198.34375 127.136719 199.136719 126.726562 C 199.300781 126.621094 199.472656 126.535156 199.652344 126.460938 C 205.550781 123.359375 210.542969 119.886719 214.421875 116.144531 C 214.578125 115.957031 214.757812 115.78125 214.945312 115.628906 C 220.546875 110.039062 223.683594 103.855469 223.683594 97.394531 C 223.683594 92.035156 221.515625 86.855469 217.578125 82.066406 C 214.164062 77.914062 209.429688 74.039062 203.621094 70.5625 Z M 193.964844 72.507812 C 193.855469 72.628906 193.738281 72.746094 193.628906 72.867188 L 193.628906 97.867188 C 193.824219 97.550781 194.007812 97.230469 194.183594 96.90625 C 194.296875 96.691406 194.40625 96.480469 194.515625 96.265625 C 194.585938 96.128906 194.660156 95.996094 194.722656 95.859375 C 194.859375 95.578125 194.992188 95.300781 195.113281 95.019531 C 195.144531 94.960938 195.167969 94.902344 195.195312 94.84375 C 195.328125 94.546875 195.449219 94.242188 195.570312 93.941406 C 195.585938 93.890625 195.609375 93.84375 195.625 93.792969 C 195.742188 93.492188 195.851562 93.1875 195.949219 92.882812 C 195.964844 92.824219 195.988281 92.765625 196.007812 92.703125 C 196.105469 92.410156 196.191406 92.117188 196.269531 91.824219 C 196.292969 91.742188 196.3125 91.667969 196.335938 91.585938 C 196.410156 91.3125 196.480469 91.035156 196.542969 90.757812 C 196.566406 90.65625 196.589844 90.546875 196.605469 90.441406 C 196.65625 90.1875 196.707031 89.933594 196.753906 89.675781 C 196.777344 89.53125 196.796875 89.394531 196.816406 89.25 C 196.851562 89.023438 196.886719 88.800781 196.910156 88.574219 C 196.933594 88.378906 196.945312 88.191406 196.960938 87.996094 C 196.980469 87.816406 196.996094 87.636719 197.007812 87.453125 C 197.027344 87.121094 197.035156 86.785156 197.035156 86.453125 C 197.035156 86.40625 197.042969 86.367188 197.042969 86.320312 L 197.042969 68.894531 C 196.972656 68.984375 196.898438 69.078125 196.824219 69.171875 C 196.597656 69.464844 196.371094 69.757812 196.128906 70.050781 C 196.019531 70.1875 195.902344 70.320312 195.789062 70.460938 C 195.558594 70.734375 195.320312 71.019531 195.074219 71.289062 C 194.953125 71.425781 194.828125 71.570312 194.699219 71.707031 C 194.464844 71.972656 194.214844 72.246094 193.964844 72.507812 Z M 121.96875 129.390625 C 122.203125 129.367188 122.433594 129.339844 122.664062 129.316406 L 122.664062 100.34375 C 119.546875 100.660156 116.367188 100.914062 113.144531 101.085938 L 113.144531 130.082031 C 114.214844 130.023438 115.285156 129.957031 116.351562 129.882812 C 116.515625 129.871094 116.691406 129.859375 116.855469 129.839844 C 117.269531 129.8125 117.6875 129.777344 118.101562 129.742188 C 119.261719 129.652344 120.414062 129.546875 121.558594 129.433594 C 121.699219 129.421875 121.832031 129.402344 121.96875 129.390625 Z M 87.152344 129.875 C 88.25 129.957031 89.363281 130.023438 90.472656 130.089844 L 90.472656 101.089844 C 87.253906 100.917969 84.078125 100.664062 80.957031 100.347656 L 80.957031 129.324219 C 81.148438 129.339844 81.335938 129.367188 81.527344 129.386719 C 81.722656 129.402344 81.917969 129.425781 82.113281 129.449219 C 83.214844 129.558594 84.324219 129.65625 85.441406 129.75 C 85.949219 129.789062 86.449219 129.828125 86.957031 129.871094 C 87.019531 129.863281 87.089844 129.871094 87.152344 129.875 Z M 171.988281 143.289062 L 171.988281 172.128906 C 175.277344 171.335938 178.453125 170.449219 181.503906 169.480469 L 181.503906 140.753906 C 178.4375 141.683594 175.265625 142.527344 171.988281 143.289062 Z M 188.078125 138.609375 L 188.078125 167.21875 C 191.113281 166.074219 193.992188 164.847656 196.707031 163.539062 C 197.007812 163.398438 197.300781 163.246094 197.59375 163.101562 L 197.59375 134.769531 C 194.597656 136.136719 191.417969 137.421875 188.078125 138.609375 Z M 165.410156 144.675781 C 162.304688 145.269531 159.128906 145.792969 155.886719 146.234375 L 155.886719 175.1875 C 159.132812 174.726562 162.3125 174.191406 165.410156 173.574219 Z M 149.3125 176 L 149.3125 147.023438 C 146.191406 147.339844 143.015625 147.59375 139.796875 147.765625 L 139.796875 176.765625 C 143.019531 176.578125 146.191406 176.328125 149.3125 176 Z M 128.457031 148.074219 C 126.863281 148.074219 125.273438 148.050781 123.695312 148.015625 L 123.695312 177 C 124.96875 177.035156 126.242188 177.058594 127.511719 177.074219 C 127.828125 177.074219 128.140625 177.082031 128.457031 177.082031 C 130.050781 177.082031 131.640625 177.0625 133.21875 177.023438 L 133.21875 148.019531 C 131.640625 148.054688 130.058594 148.074219 128.457031 148.074219 Z M 178.328125 84.351562 C 178.0625 84.5 177.796875 84.644531 177.527344 84.792969 L 177.527344 112.800781 C 178.828125 112.007812 180.082031 111.195312 181.261719 110.367188 C 183.394531 108.867188 185.320312 107.3125 187.050781 105.714844 L 187.050781 78.664062 C 187.027344 78.679688 187.003906 78.699219 186.984375 78.710938 C 186.863281 78.800781 186.738281 78.886719 186.617188 78.980469 C 186.253906 79.25 185.886719 79.527344 185.507812 79.792969 C 185.332031 79.917969 185.15625 80.039062 184.976562 80.164062 C 184.648438 80.394531 184.316406 80.632812 183.976562 80.855469 C 183.773438 80.996094 183.566406 81.125 183.363281 81.265625 C 183.042969 81.476562 182.71875 81.691406 182.386719 81.902344 C 182.167969 82.042969 181.949219 82.1875 181.722656 82.324219 C 181.402344 82.527344 181.074219 82.726562 180.738281 82.929688 C 180.507812 83.066406 180.277344 83.207031 180.042969 83.347656 C 179.710938 83.550781 179.371094 83.746094 179.03125 83.941406 C 178.800781 84.085938 178.570312 84.21875 178.328125 84.351562 Z M 170.953125 88.09375 C 167.949219 89.460938 164.769531 90.746094 161.429688 91.933594 L 161.429688 120.53125 C 162.734375 120.035156 164.023438 119.523438 165.300781 118.988281 C 167.257812 118.164062 169.144531 117.308594 170.949219 116.414062 L 170.949219 88.09375 Z M 154.855469 94.078125 C 151.789062 95 148.609375 95.847656 145.335938 96.613281 L 145.335938 125.449219 C 146.710938 125.113281 148.082031 124.761719 149.445312 124.390625 L 149.636719 124.347656 C 149.710938 124.332031 149.785156 124.308594 149.855469 124.292969 C 150.972656 123.980469 152.082031 123.664062 153.175781 123.328125 C 153.308594 123.289062 153.445312 123.25 153.578125 123.207031 C 154.011719 123.078125 154.425781 122.9375 154.851562 122.800781 L 154.851562 94.078125 Z M 138.761719 98 C 135.660156 98.59375 132.488281 99.117188 129.238281 99.558594 L 129.238281 128.511719 C 129.542969 128.464844 129.855469 128.425781 130.160156 128.378906 C 130.449219 128.339844 130.730469 128.292969 131.011719 128.25 C 131.445312 128.1875 131.875 128.121094 132.300781 128.050781 C 132.597656 128.003906 132.894531 127.957031 133.183594 127.90625 C 133.414062 127.867188 133.644531 127.824219 133.878906 127.792969 C 135.519531 127.515625 137.144531 127.210938 138.753906 126.886719 L 138.753906 98 Z M 106.570312 130.339844 L 106.570312 101.339844 C 104.992188 101.375 103.410156 101.398438 101.808594 101.398438 C 100.214844 101.398438 98.625 101.378906 97.046875 101.339844 L 97.046875 130.339844 C 98.625 130.375 100.214844 130.398438 101.808594 130.398438 C 103.410156 130.398438 104.992188 130.382812 106.570312 130.339844 Z M 91.503906 173.425781 C 94.628906 174.046875 97.808594 174.59375 101.027344 175.058594 L 101.027344 146.242188 C 97.785156 145.796875 94.605469 145.273438 91.503906 144.683594 Z M 107.601562 147.019531 L 107.601562 175.890625 C 110.75 176.234375 113.925781 176.503906 117.121094 176.699219 L 117.121094 147.765625 C 113.898438 147.589844 110.726562 147.335938 107.601562 147.019531 Z M 36.574219 144.40625 L 36.640625 144.515625 L 36.640625 125.394531 C 36.464844 125.320312 36.277344 125.253906 36.101562 125.175781 C 35.664062 125 35.238281 124.804688 34.804688 124.613281 C 34.527344 124.492188 34.253906 124.378906 33.976562 124.257812 C 33.730469 124.148438 33.46875 124.042969 33.222656 123.929688 L 33.222656 132.984375 C 33.222656 133.710938 33.261719 134.429688 33.34375 135.148438 C 33.367188 135.320312 33.390625 135.492188 33.414062 135.667969 C 33.429688 135.804688 33.445312 135.941406 33.46875 136.074219 C 33.5 136.246094 33.527344 136.414062 33.554688 136.585938 C 33.601562 136.835938 33.644531 137.082031 33.699219 137.332031 C 33.832031 137.871094 33.972656 138.378906 34.113281 138.863281 C 34.21875 139.191406 34.320312 139.519531 34.429688 139.851562 C 34.644531 140.46875 34.878906 141.054688 35.144531 141.648438 C 35.253906 141.878906 35.363281 142.113281 35.472656 142.339844 C 35.480469 142.34375 35.480469 142.355469 35.484375 142.363281 C 35.53125 142.460938 35.582031 142.558594 35.628906 142.65625 C 35.871094 143.140625 36.136719 143.632812 36.433594 144.15625 C 36.480469 144.246094 36.527344 144.324219 36.574219 144.40625 Z M 58.28125 96.613281 C 55.007812 95.851562 51.832031 95 48.761719 94.078125 L 48.761719 122.800781 L 49.507812 123.042969 L 52.628906 123.964844 C 52.652344 123.96875 52.667969 123.980469 52.6875 123.984375 C 52.859375 124.03125 53.027344 124.082031 53.199219 124.128906 C 53.78125 124.292969 54.355469 124.445312 54.917969 124.597656 C 54.988281 124.613281 55.058594 124.628906 55.121094 124.648438 C 55.453125 124.734375 55.78125 124.820312 56.109375 124.90625 C 56.582031 125.027344 57.054688 125.148438 57.53125 125.265625 C 57.78125 125.328125 58.035156 125.386719 58.289062 125.441406 L 58.289062 96.613281 Z M 46.179688 154.941406 C 46.542969 155.226562 46.90625 155.515625 47.273438 155.796875 C 47.417969 155.878906 47.539062 155.976562 47.65625 156.078125 L 49.277344 157.242188 C 49.882812 157.664062 50.539062 158.101562 51.246094 158.554688 L 52.65625 159.4375 C 52.679688 159.453125 52.710938 159.464844 52.730469 159.480469 L 52.730469 131.46875 C 52.507812 131.34375 52.277344 131.222656 52.054688 131.09375 C 51.742188 130.921875 51.4375 130.746094 51.132812 130.566406 C 50.902344 130.433594 50.664062 130.300781 50.441406 130.167969 L 47.578125 129.304688 C 46.601562 129 45.605469 128.679688 44.597656 128.34375 C 44.460938 128.304688 44.320312 128.261719 44.195312 128.207031 C 44.054688 128.160156 43.925781 128.113281 43.785156 128.066406 C 43.664062 128.027344 43.542969 127.980469 43.417969 127.941406 C 43.347656 127.917969 43.28125 127.894531 43.214844 127.871094 L 43.214844 152.304688 C 44.066406 153.148438 45.019531 154 46.179688 154.941406 Z M 68.832031 167.085938 L 68.832031 138.609375 C 68.703125 138.5625 68.5625 138.515625 68.429688 138.464844 C 68.066406 138.332031 67.710938 138.199219 67.347656 138.066406 C 66.96875 137.921875 66.582031 137.785156 66.203125 137.640625 C 65.847656 137.503906 65.5 137.363281 65.144531 137.226562 C 64.769531 137.082031 64.394531 136.933594 64.027344 136.789062 C 63.679688 136.652344 63.335938 136.507812 62.996094 136.363281 C 62.628906 136.214844 62.265625 136.0625 61.902344 135.910156 C 61.5625 135.765625 61.230469 135.613281 60.894531 135.472656 C 60.539062 135.316406 60.175781 135.160156 59.824219 135 C 59.652344 134.925781 59.484375 134.84375 59.3125 134.761719 L 59.3125 163.015625 C 62.335938 164.484375 65.511719 165.84375 68.832031 167.085938 Z M 74.378906 128.511719 L 74.378906 99.558594 C 71.136719 99.117188 67.957031 98.59375 64.855469 98 L 64.855469 126.886719 C 65.242188 126.960938 65.628906 127.046875 66.011719 127.125 C 66.058594 127.136719 66.105469 127.140625 66.152344 127.152344 C 67.3125 127.375 68.488281 127.585938 69.667969 127.78125 C 69.949219 127.824219 70.226562 127.878906 70.507812 127.921875 C 70.746094 127.964844 70.980469 128 71.21875 128.039062 C 71.707031 128.113281 72.191406 128.195312 72.679688 128.269531 C 72.910156 128.304688 73.140625 128.339844 73.371094 128.371094 C 73.710938 128.417969 74.042969 128.464844 74.378906 128.511719 Z M 32.664062 88.085938 L 32.664062 116.414062 C 32.757812 116.460938 32.847656 116.507812 32.941406 116.554688 C 33.089844 116.628906 33.234375 116.699219 33.382812 116.773438 C 35.035156 117.566406 36.78125 118.351562 38.617188 119.117188 C 39.785156 119.605469 40.984375 120.070312 42.1875 120.527344 L 42.1875 91.925781 C 38.851562 90.742188 35.667969 89.457031 32.664062 88.085938 Z M 82.726562 142.765625 C 82.378906 142.679688 82.039062 142.59375 81.699219 142.5 C 81.210938 142.375 80.722656 142.253906 80.238281 142.125 C 79.851562 142.023438 79.472656 141.917969 79.09375 141.816406 C 78.660156 141.695312 78.222656 141.578125 77.792969 141.457031 C 77.398438 141.347656 77.015625 141.234375 76.628906 141.117188 C 76.21875 140.996094 75.8125 140.882812 75.40625 140.761719 L 75.40625 169.339844 C 78.492188 170.304688 81.671875 171.1875 84.929688 171.96875 L 84.929688 143.289062 C 84.191406 143.117188 83.457031 142.941406 82.726562 142.765625 Z M 172.398438 123.019531 C 177.636719 121.632812 182.457031 120.007812 186.761719 118.175781 C 199.996094 112.554688 208.140625 105.207031 208.140625 97.414062 C 208.140625 95 207.351562 92.625 205.867188 90.34375 C 205.234375 89.363281 204.476562 88.402344 203.601562 87.460938 C 203.601562 87.488281 203.59375 87.523438 203.59375 87.550781 C 203.589844 87.632812 203.589844 87.710938 203.582031 87.792969 C 203.578125 87.925781 203.558594 88.050781 203.554688 88.183594 C 203.546875 88.304688 203.535156 88.425781 203.523438 88.546875 C 203.511719 88.667969 203.507812 88.789062 203.496094 88.910156 C 203.484375 89.035156 203.46875 89.15625 203.457031 89.285156 C 203.4375 89.417969 203.421875 89.542969 203.402344 89.675781 C 203.359375 90.054688 203.300781 90.429688 203.238281 90.804688 C 203.21875 90.90625 203.203125 91.011719 203.179688 91.113281 C 203.097656 91.539062 203.011719 91.960938 202.914062 92.386719 C 202.902344 92.4375 202.890625 92.484375 202.878906 92.535156 C 202.289062 95.023438 201.34375 97.449219 200.070312 99.800781 C 200.035156 99.871094 199.996094 99.941406 199.957031 100.007812 C 199.753906 100.378906 199.542969 100.746094 199.324219 101.113281 C 199.246094 101.242188 199.171875 101.367188 199.097656 101.488281 C 198.914062 101.78125 198.730469 102.074219 198.535156 102.371094 C 198.417969 102.542969 198.308594 102.71875 198.1875 102.894531 C 198.050781 103.09375 197.902344 103.300781 197.757812 103.503906 C 196.324219 105.53125 194.648438 107.492188 192.742188 109.375 C 192.667969 109.457031 192.59375 109.53125 192.511719 109.601562 C 190.300781 111.753906 187.804688 113.8125 185.039062 115.75 C 182.21875 117.726562 179.132812 119.59375 175.816406 121.320312 C 175.8125 121.328125 175.804688 121.328125 175.792969 121.332031 C 175.78125 121.339844 175.773438 121.34375 175.753906 121.355469 C 175.148438 121.671875 174.539062 121.984375 173.917969 122.289062 C 173.800781 122.34375 173.6875 122.402344 173.574219 122.453125 C 173.1875 122.632812 172.796875 122.828125 172.398438 123.019531 Z M 16.566406 105.75 C 19.261719 108.242188 22.457031 110.605469 26.089844 112.816406 L 26.089844 84.792969 C 25.820312 84.644531 25.554688 84.5 25.289062 84.351562 C 25.058594 84.21875 24.835938 84.089844 24.605469 83.960938 C 24.253906 83.757812 23.90625 83.554688 23.5625 83.355469 C 23.339844 83.222656 23.121094 83.089844 22.894531 82.953125 C 22.550781 82.746094 22.210938 82.53125 21.875 82.324219 C 21.667969 82.191406 21.457031 82.058594 21.25 81.925781 C 20.902344 81.707031 20.5625 81.484375 20.230469 81.257812 C 20.039062 81.132812 19.847656 81.007812 19.660156 80.878906 C 19.300781 80.636719 18.953125 80.394531 18.605469 80.148438 C 18.445312 80.039062 18.285156 79.921875 18.128906 79.8125 C 17.726562 79.527344 17.332031 79.238281 16.941406 78.945312 C 16.84375 78.871094 16.746094 78.800781 16.648438 78.726562 C 16.625 78.710938 16.597656 78.6875 16.566406 78.667969 Z M 27.417969 199.105469 C 30.113281 201.597656 33.308594 203.964844 36.933594 206.175781 L 36.933594 178.144531 C 36.675781 178 36.417969 177.859375 36.160156 177.714844 C 35.90625 177.570312 35.65625 177.425781 35.410156 177.28125 C 35.082031 177.09375 34.757812 176.90625 34.4375 176.710938 C 34.195312 176.570312 33.953125 176.425781 33.71875 176.28125 C 33.394531 176.085938 33.074219 175.890625 32.757812 175.6875 C 32.527344 175.542969 32.300781 175.398438 32.078125 175.257812 C 31.753906 175.046875 31.433594 174.835938 31.117188 174.628906 C 30.90625 174.492188 30.695312 174.351562 30.492188 174.214844 C 30.160156 173.988281 29.832031 173.757812 29.503906 173.527344 C 29.324219 173.402344 29.140625 173.277344 28.960938 173.148438 C 28.589844 172.882812 28.226562 172.613281 27.863281 172.34375 C 27.734375 172.25 27.609375 172.160156 27.488281 172.066406 C 27.464844 172.050781 27.441406 172.03125 27.425781 172.019531 L 27.425781 199.105469 Z M 59.605469 187.429688 L 59.605469 216.15625 C 62.664062 217.125 65.839844 218.003906 69.128906 218.804688 L 69.128906 189.964844 C 65.851562 189.203125 62.679688 188.359375 59.605469 187.429688 Z M 75.707031 220.25 C 78.796875 220.867188 81.976562 221.402344 85.230469 221.863281 L 85.230469 192.910156 C 81.988281 192.46875 78.808594 191.945312 75.707031 191.351562 Z M 91.804688 222.675781 C 94.921875 223.003906 98.09375 223.257812 101.324219 223.441406 L 101.324219 194.441406 C 98.105469 194.269531 94.929688 194.015625 91.804688 193.699219 Z M 123.996094 194.4375 L 123.996094 223.433594 C 127.21875 223.253906 130.398438 222.996094 133.511719 222.667969 L 133.511719 193.695312 C 130.390625 194.015625 127.214844 194.265625 123.996094 194.4375 Z M 140.089844 221.863281 C 143.339844 221.402344 146.515625 220.867188 149.613281 220.25 L 149.613281 191.351562 C 146.511719 191.945312 143.339844 192.46875 140.089844 192.910156 Z M 156.1875 218.804688 C 159.472656 218.011719 162.652344 217.125 165.703125 216.15625 L 165.703125 187.441406 C 165.652344 187.460938 165.605469 187.472656 165.558594 187.488281 C 162.535156 188.394531 159.410156 189.214844 156.1875 189.964844 Z M 188.378906 178.144531 L 188.378906 206.175781 C 192.003906 203.964844 195.199219 201.597656 197.902344 199.105469 L 197.902344 172.027344 C 197.890625 172.039062 197.871094 172.050781 197.855469 172.0625 C 197.507812 172.320312 197.152344 172.578125 196.800781 172.832031 C 196.5 173.050781 196.207031 173.269531 195.902344 173.484375 C 195.515625 173.753906 195.121094 174.019531 194.730469 174.28125 C 194.433594 174.480469 194.152344 174.675781 193.859375 174.871094 C 193.433594 175.148438 192.988281 175.421875 192.550781 175.699219 C 192.269531 175.871094 192 176.050781 191.71875 176.222656 C 191.246094 176.511719 190.761719 176.792969 190.277344 177.074219 C 190.015625 177.230469 189.753906 177.386719 189.484375 177.542969 C 189.117188 177.742188 188.746094 177.945312 188.378906 178.144531 Z M 209.34375 156.027344 C 210.910156 154.859375 212.367188 153.664062 213.703125 152.429688 L 213.703125 125.351562 C 213.679688 125.367188 213.652344 125.386719 213.628906 125.40625 C 213.53125 125.484375 213.425781 125.558594 213.328125 125.632812 C 212.941406 125.921875 212.550781 126.214844 212.148438 126.496094 C 211.988281 126.609375 211.828125 126.71875 211.664062 126.835938 C 211.320312 127.078125 210.96875 127.324219 210.613281 127.566406 C 210.421875 127.695312 210.230469 127.820312 210.042969 127.945312 C 209.703125 128.171875 209.367188 128.390625 209.023438 128.613281 C 208.816406 128.746094 208.609375 128.878906 208.394531 129.011719 C 208.054688 129.226562 207.714844 129.433594 207.371094 129.644531 C 207.152344 129.777344 206.933594 129.910156 206.714844 130.042969 C 206.367188 130.25 206.011719 130.449219 205.660156 130.65625 C 205.4375 130.785156 205.21875 130.917969 204.992188 131.042969 C 204.722656 131.195312 204.453125 131.34375 204.179688 131.492188 L 204.179688 159.417969 C 205.855469 158.429688 207.515625 157.398438 209.242188 156.109375 C 209.277344 156.0625 209.308594 156.050781 209.34375 156.027344 Z M 6.574219 50.726562 C 6.574219 54.300781 7.542969 57.792969 9.347656 61.144531 C 10.804688 63.84375 12.808594 66.453125 15.308594 68.945312 C 15.503906 69.101562 15.679688 69.28125 15.84375 69.476562 C 19.722656 73.21875 24.707031 76.6875 30.609375 79.792969 C 30.789062 79.867188 30.960938 79.953125 31.121094 80.054688 C 31.921875 80.46875 32.726562 80.878906 33.554688 81.277344 C 37.472656 83.160156 41.730469 84.878906 46.277344 86.417969 C 46.445312 86.457031 46.613281 86.515625 46.769531 86.578125 C 51.5625 88.179688 56.679688 89.578125 62.070312 90.742188 C 62.191406 90.757812 62.3125 90.785156 62.425781 90.816406 C 67.390625 91.878906 72.582031 92.742188 77.953125 93.398438 C 78 93.40625 78.042969 93.410156 78.089844 93.417969 C 85.671875 94.332031 93.617188 94.820312 101.808594 94.820312 C 109.996094 94.820312 117.933594 94.332031 125.515625 93.421875 C 125.566406 93.417969 125.617188 93.410156 125.671875 93.40625 C 131.046875 92.753906 136.238281 91.886719 141.207031 90.820312 C 141.316406 90.792969 141.425781 90.769531 141.535156 90.753906 C 146.925781 89.582031 152.042969 88.191406 156.84375 86.589844 C 157.003906 86.519531 157.164062 86.46875 157.339844 86.421875 C 161.886719 84.886719 166.144531 83.164062 170.0625 81.28125 C 170.890625 80.886719 171.703125 80.476562 172.5 80.0625 C 172.65625 79.964844 172.824219 79.878906 172.996094 79.808594 C 178.902344 76.707031 183.894531 73.234375 187.773438 69.488281 C 187.929688 69.289062 188.109375 69.117188 188.304688 68.96875 C 191.441406 65.832031 193.808594 62.515625 195.28125 59.0625 C 196.433594 56.355469 197.042969 53.574219 197.042969 50.738281 C 197.042969 39.023438 186.734375 28.203125 170.0625 20.1875 C 152.664062 11.820312 128.53125 6.644531 101.808594 6.644531 C 75.078125 6.644531 50.953125 11.820312 33.554688 20.1875 C 16.890625 28.195312 6.574219 39.011719 6.574219 50.726562 Z M 6.574219 86.3125 C 6.574219 90.292969 7.765625 94.164062 9.988281 97.863281 L 9.988281 72.859375 C 9.878906 72.746094 9.773438 72.636719 9.664062 72.519531 C 9.40625 72.246094 9.148438 71.96875 8.898438 71.6875 C 8.777344 71.554688 8.65625 71.421875 8.542969 71.28125 C 8.296875 71 8.054688 70.71875 7.816406 70.4375 C 7.707031 70.304688 7.597656 70.171875 7.488281 70.046875 C 7.246094 69.75 7.015625 69.453125 6.789062 69.152344 C 6.71875 69.0625 6.644531 68.972656 6.574219 68.882812 Z M 20.875 132.472656 C 18.628906 136.167969 17.425781 140.066406 17.425781 144.082031 C 17.425781 146.035156 17.71875 147.964844 18.273438 149.855469 C 21.046875 159.328125 30.515625 167.949219 44.40625 174.632812 C 61.804688 183 85.929688 188.175781 112.660156 188.175781 C 131.414062 188.175781 148.898438 185.617188 163.683594 181.195312 C 164.089844 181.074219 164.488281 180.949219 164.890625 180.824219 C 165.347656 180.679688 165.804688 180.539062 166.261719 180.398438 C 166.6875 180.257812 167.109375 180.113281 167.535156 179.976562 C 167.875 179.859375 168.21875 179.75 168.558594 179.636719 C 166.058594 180.171875 163.640625 180.621094 161.265625 181 C 158.582031 181.449219 155.847656 181.839844 153.066406 182.179688 C 153.003906 182.191406 152.941406 182.199219 152.875 182.203125 C 145.847656 183.054688 138.535156 183.546875 131.019531 183.636719 C 131.011719 183.636719 131.011719 183.636719 131.007812 183.636719 C 130.160156 183.648438 129.3125 183.65625 128.460938 183.65625 C 120.050781 183.65625 111.871094 183.148438 104.054688 182.203125 C 103.984375 182.199219 103.914062 182.1875 103.847656 182.179688 C 100.363281 181.753906 96.949219 181.242188 93.621094 180.648438 C 74.640625 178.847656 58.046875 174.390625 46.214844 168.273438 C 33.816406 161.855469 26.40625 153.464844 26.40625 144.082031 C 26.40625 143.03125 26.511719 141.941406 26.71875 140.835938 L 26.71875 140.824219 C 26.847656 140.09375 27.039062 139.363281 27.265625 138.644531 C 27.074219 137.777344 26.929688 136.910156 26.832031 136.027344 C 26.832031 136.011719 26.828125 135.988281 26.828125 135.972656 C 26.828125 135.964844 26.828125 135.953125 26.828125 135.949219 C 26.71875 134.976562 26.660156 133.992188 26.652344 133.007812 C 26.652344 133 26.652344 132.996094 26.652344 132.988281 L 26.652344 125.386719 C 24.300781 127.652344 22.359375 130.023438 20.875 132.472656 Z M 17.425781 179.664062 C 17.425781 183.644531 18.617188 187.519531 20.839844 191.21875 L 20.839844 166.21875 C 20.722656 166.101562 20.613281 165.980469 20.503906 165.859375 C 20.253906 165.597656 20.003906 165.324219 19.761719 165.054688 C 19.636719 164.910156 19.507812 164.773438 19.382812 164.628906 C 19.140625 164.359375 18.910156 164.082031 18.679688 163.804688 C 18.566406 163.667969 18.445312 163.523438 18.328125 163.386719 C 18.097656 163.101562 17.875 162.816406 17.648438 162.527344 C 17.574219 162.429688 17.496094 162.332031 17.421875 162.234375 L 17.421875 179.664062 Z M 44.402344 210.210938 C 47.121094 211.519531 49.996094 212.742188 53.03125 213.890625 L 53.03125 185.277344 C 49.699219 184.09375 46.515625 182.808594 43.507812 181.4375 L 43.507812 209.769531 C 43.808594 209.921875 44.101562 210.066406 44.402344 210.210938 Z M 117.421875 223.699219 L 117.421875 194.691406 C 115.84375 194.726562 114.261719 194.75 112.660156 194.75 C 111.066406 194.75 109.476562 194.730469 107.898438 194.691406 L 107.898438 223.695312 C 109.476562 223.726562 111.066406 223.75 112.660156 223.75 C 114.253906 223.757812 115.84375 223.734375 117.421875 223.699219 Z M 180.914062 210.210938 C 181.210938 210.066406 181.503906 209.917969 181.800781 209.773438 L 181.800781 181.445312 C 181.210938 181.714844 180.613281 181.980469 180.007812 182.238281 C 179.894531 182.289062 179.777344 182.34375 179.664062 182.394531 C 178.816406 182.761719 177.953125 183.121094 177.085938 183.472656 C 177.0625 183.480469 177.03125 183.492188 177.007812 183.5 C 175.472656 184.117188 173.894531 184.707031 172.28125 185.285156 L 172.28125 213.890625 C 175.3125 212.75 178.195312 211.519531 180.914062 210.210938 Z M 207.894531 164.910156 C 206.828125 165.597656 205.644531 166.273438 204.476562 166.910156 L 204.476562 191.21875 C 206.703125 187.523438 207.894531 183.644531 207.894531 179.664062 Z M 223.5 115.804688 C 223.265625 116.117188 223.015625 116.425781 222.769531 116.734375 C 222.667969 116.859375 222.5625 116.980469 222.457031 117.105469 C 222.21875 117.398438 221.96875 117.6875 221.714844 117.976562 C 221.601562 118.101562 221.484375 118.234375 221.371094 118.363281 C 221.117188 118.644531 220.859375 118.925781 220.59375 119.207031 C 220.488281 119.316406 220.378906 119.433594 220.277344 119.542969 L 220.277344 144.542969 C 222.5 140.847656 223.695312 136.96875 223.695312 132.988281 L 223.695312 115.5625 C 223.632812 115.644531 223.5625 115.726562 223.5 115.804688 Z M 223.5 115.804688 " fill-opacity="1" fill-rule="nonzero"/></g></svg>